<svg width="466" height="100" viewBox="0 0 466 100" fill="none" xmlns="http://www.w3.org/2000/svg">
<path d="M4 0H0V100H4V0Z" fill="black"/>
<path d="M8 0H6V100H8V0Z" fill="black"/>
<path d="M14 0H12V100H14V0Z" fill="black"/>
<path d="M24 0H22V100H24V0Z" fill="black"/>
<path d="M36 0H32V100H36V0Z" fill="black"/>
<path d="M42 0H40V100H42V0Z" fill="black"/>
<path d="M46 0H44V100H46V0Z" fill="black"/>
<path d="M54 0H50V100H54V0Z" fill="black"/>
<path d="M64 0H62V100H64V0Z" fill="black"/>
<path d="M68 0H66V100H68V0Z" fill="black"/>
<path d="M74 0H72V100H74V0Z" fill="black"/>
<path d="M86 0H82V100H86V0Z" fill="black"/>
<path d="M90 0H88V100H90V0Z" fill="black"/>
<path d="M104 0H96V100H104V0Z" fill="black"/>
<path d="M108 0H106V100H108V0Z" fill="black"/>
<path d="M112 0H110V100H112V0Z" fill="black"/>
<path d="M124 0H120V100H124V0Z" fill="black"/>
<path d="M128 0H126V100H128V0Z" fill="black"/>
<path d="M140 0H132V100H140V0Z" fill="black"/>
<path d="M146 0H144V100H146V0Z" fill="black"/>
<path d="M150 0H148V100H150V0Z" fill="black"/>
<path d="M156 0H154V100H156V0Z" fill="black"/>
<path d="M166 0H164V100H166V0Z" fill="black"/>
<path d="M172 0H168V100H172V0Z" fill="black"/>
<path d="M178 0H176V100H178V0Z" fill="black"/>
<path d="M182 0H180V100H182V0Z" fill="black"/>
<path d="M194 0H186V100H194V0Z" fill="black"/>
<path d="M200 0H198V100H200V0Z" fill="black"/>
<path d="M214 0H206V100H214V0Z" fill="black"/>
<path d="M218 0H216V100H218V0Z" fill="black"/>
<path d="M222 0H220V100H222V0Z" fill="black"/>
<path d="M232 0H230V100H232V0Z" fill="black"/>
<path d="M240 0H236V100H240V0Z" fill="black"/>
<path d="M244 0H242V100H244V0Z" fill="black"/>
<path d="M256 0H252V100H256V0Z" fill="black"/>
<path d="M260 0H258V100H260V0Z" fill="black"/>
<path d="M266 0H264V100H266V0Z" fill="black"/>
<path d="M272 0H270V100H272V0Z" fill="black"/>
<path d="M282 0H274V100H282V0Z" fill="black"/>
<path d="M294 0H286V100H294V0Z" fill="black"/>
<path d="M298 0H296V100H298V0Z" fill="black"/>
<path d="M304 0H302V100H304V0Z" fill="black"/>
<path d="M310 0H308V100H310V0Z" fill="black"/>
<path d="M314 0H312V100H314V0Z" fill="black"/>
<path d="M326 0H318V100H326V0Z" fill="black"/>
<path d="M332 0H330V100H332V0Z" fill="black"/>
<path d="M338 0H334V100H338V0Z" fill="black"/>
<path d="M344 0H342V100H344V0Z" fill="black"/>
<path d="M354 0H352V100H354V0Z" fill="black"/>
<path d="M360 0H358V100H360V0Z" fill="black"/>
<path d="M372 0H368V100H372V0Z" fill="black"/>
<path d="M376 0H374V100H376V0Z" fill="black"/>
<path d="M388 0H380V100H388V0Z" fill="black"/>
<path d="M392 0H390V100H392V0Z" fill="black"/>
<path d="M398 0H396V100H398V0Z" fill="black"/>
<path d="M412 0H404V100H412V0Z" fill="black"/>
<path d="M416 0H414V100H416V0Z" fill="black"/>
<path d="M420 0H418V100H420V0Z" fill="black"/>
<path d="M430 0H422V100H430V0Z" fill="black"/>
<path d="M438 0H436V100H438V0Z" fill="black"/>
<path d="M444 0H440V100H444V0Z" fill="black"/>
<path d="M456 0H450V100H456V0Z" fill="black"/>
<path d="M460 0H458V100H460V0Z" fill="black"/>
<path d="M466 0H462V100H466V0Z" fill="black"/>
</svg>
