<svg width="19" height="14" viewBox="0 0 19 14" fill="none" xmlns="http://www.w3.org/2000/svg">
<path d="M12 1H3.25C2.00736 1 1 2.00736 1 3.25V4.25C1 4.94036 1.55964 5.5 2.25 5.5V5.5C2.94036 5.5 3.5 6.05964 3.5 6.75V8.25C3.5 8.94036 2.94036 9.5 2.25 9.5V9.5C1.55964 9.5 1 10.0596 1 10.75V11.25C1 12.2165 1.7835 13 2.75 13H12M12 1H16.25C17.2165 1 18 1.7835 18 2.75V3C18 3.82843 17.3284 4.5 16.5 4.5V4.5C15.6716 4.5 15 5.17157 15 6V8C15 8.82843 15.6716 9.5 16.5 9.5V9.5C17.3284 9.5 18 10.1716 18 11V11.25C18 12.2165 17.2165 13 16.25 13H12M12 1V13" stroke="#FDEBEB"/>
</svg>
